<svg width="248" height="50" viewBox="0 0 248 50" fill="none" xmlns="http://www.w3.org/2000/svg">
<path d="M226.271 6.72266C235.278 6.72269 243.045 12.3144 246.074 20.3154L246.142 20.4922L246.008 20.626L223.9 42.7324C224.701 42.851 225.487 42.9492 226.271 42.9492C233.554 42.9492 239.641 37.6919 240.994 30.7021L241.04 30.4648H247.361L247.316 30.7969C245.919 41.2035 236.988 49.2031 226.271 49.2031C214.544 49.2031 204.992 39.6514 204.992 27.9248C204.992 16.1966 214.545 6.72266 226.271 6.72266ZM226.271 12.9766C218.006 12.9766 211.246 19.6638 211.246 27.9248C211.246 33.0194 213.787 37.461 217.658 40.1807L238.524 19.3145C235.802 15.5168 231.289 12.9766 226.271 12.9766Z" fill="#F8F9FB" stroke="#E2E2E2" stroke-width="0.586122"/>
<path d="M165.402 1.12891V12.8818C169.251 9.0703 174.551 6.71973 180.351 6.71973C192.153 6.71998 201.629 16.1945 201.629 27.9219C201.629 39.6477 192.154 49.1999 180.351 49.2002C168.623 49.2002 159.149 39.6472 159.148 27.9219V1.12891H165.402ZM180.351 12.9736C172.088 12.9736 165.402 19.6589 165.402 27.9219C165.402 36.1867 172.09 42.9463 180.351 42.9463C188.689 42.946 195.375 36.1855 195.375 27.9219C195.375 19.66 188.691 12.9739 180.351 12.9736Z" fill="#F8F9FB" stroke="#E2E2E2" stroke-width="0.586122"/>
<path d="M152.081 13.1396V47.501H145.508V13.1396H152.081ZM148.794 0.453125C151.194 0.453125 153.076 2.42342 153.076 4.73535C153.076 7.12994 151.189 9.01758 148.794 9.01758C146.4 9.0174 144.512 7.12983 144.512 4.73535C144.512 2.42352 146.394 0.453305 148.794 0.453125Z" fill="#F8F9FB" stroke="#E2E2E2" stroke-width="0.905669"/>
<path d="M102.9 5.60156L102.972 5.90234C105.373 16.0894 106.905 22.6716 107.838 26.707C108.304 28.7245 108.621 30.1056 108.821 30.9824C108.921 31.4208 108.991 31.7337 109.037 31.9365C109.06 32.0377 109.077 32.1115 109.088 32.1602C109.093 32.1845 109.097 32.2029 109.1 32.2148C109.101 32.2208 109.103 32.2255 109.104 32.2285C109.104 32.2297 109.103 32.2308 109.104 32.2314L109.104 32.2324H109.104C110.483 38.0009 114.437 41.3125 117.884 41.3125C119.682 41.3125 121.385 40.9791 122.866 39.7178C124.356 38.4491 125.676 36.1949 126.59 32.2305L126.592 32.2227V32.2217C126.592 32.2207 126.592 32.2187 126.593 32.2168C126.594 32.213 126.596 32.2076 126.598 32.2002C126.602 32.1848 126.607 32.161 126.614 32.1299C126.63 32.0676 126.653 31.9738 126.685 31.8477C126.747 31.5954 126.84 31.2141 126.965 30.6992C127.214 29.669 127.588 28.1031 128.086 25.9629C129.083 21.6822 130.578 15.1023 132.572 5.90918L132.64 5.60156H139.132L139.024 6.07812C137.288 13.7856 135.718 20.6535 134.582 25.5947C134.014 28.0652 133.555 30.0545 133.237 31.4258C133.079 32.1114 132.955 32.6431 132.871 33.0029C132.829 33.1827 132.798 33.3201 132.776 33.4121C132.766 33.4578 132.757 33.4924 132.752 33.5156C132.749 33.5271 132.747 33.5361 132.746 33.542C132.745 33.5448 132.745 33.5474 132.745 33.5488L132.744 33.5508C131.328 39.6339 129.039 43.2005 126.357 45.2383C123.676 47.2762 120.659 47.7412 117.884 47.7412C115.036 47.7412 111.934 46.8969 109.224 44.6865C106.512 42.4756 104.221 38.9218 102.949 33.5527L102.948 33.5469L102.947 33.5449C102.947 33.5436 102.947 33.5415 102.946 33.5391C102.945 33.5339 102.944 33.5258 102.941 33.5156C102.937 33.495 102.93 33.4638 102.921 33.4229C102.903 33.3406 102.875 33.2178 102.839 33.0557C102.766 32.7311 102.658 32.2486 102.516 31.6172C102.231 30.3539 101.808 28.4943 101.259 26.1104C100.16 21.3424 98.5537 14.4761 96.5225 6.08398L96.4053 5.60156H102.9Z" fill="#F8F9FB" stroke="#E2E2E2" stroke-width="0.781496"/>
<path d="M57.2285 5.60156V26.4033C57.2285 34.6097 63.6825 41.3027 71.6318 41.3027C79.5812 41.3027 86.0361 34.6097 86.0361 26.4033V5.60156H92.3184V26.5566C92.3183 38.3075 83.082 47.7412 71.6318 47.7412C60.1781 47.7412 50.9453 38.1504 50.9453 26.4033V5.60156H57.2285Z" fill="#F8F9FB" stroke="#E2E2E2" stroke-width="0.781496"/>
<path d="M22.8105 2.61719C35.2131 2.61719 45.2314 12.7193 45.2314 25.1182V47.0547H38.4785V25.1182C38.4784 16.455 31.4686 9.37012 22.8105 9.37012C14.1527 9.37031 7.14362 16.4551 7.14355 25.1182V47.0547H0.390625V24.957C0.390625 12.5545 10.4119 2.61737 22.8105 2.61719Z" fill="#F8F9FB" stroke="#E2E2E2" stroke-width="0.781496"/>
</svg>
