<svg width="77" height="77" viewBox="0 0 77 77" fill="none" xmlns="http://www.w3.org/2000/svg">
<path d="M39.9463 0C60.4131 0 77.0049 16.5918 77.0049 37.0586V39.9463C77.0047 60.4129 60.413 77.0039 39.9463 77.0039H37.0586C16.5919 77.0039 0.000169127 60.4129 0 39.9463V37.0586C0 16.5918 16.5918 4.05758e-05 37.0586 0H39.9463ZM51.3877 12.9316C44.2456 5.78959 32.6666 5.78965 25.5244 12.9316L12.9326 25.5234C5.79051 32.6656 5.79049 44.2446 12.9326 51.3867L25.5244 63.9785C32.6665 71.1204 44.2456 71.1205 51.3877 63.9785L63.9795 51.3867C71.1215 44.2446 71.1215 32.6655 63.9795 25.5234L51.3877 12.9316Z" fill="#F8F9FB"/>
</svg>
