<svg width="277" height="16" viewBox="0 0 277 16" fill="none" xmlns="http://www.w3.org/2000/svg">
<path d="M3.77394 11.9062V2.26798H0.000392463V0.900069H9.10408V2.26798H5.33053V11.9062H3.77394ZM15.324 11.9062V10.1453L15.2454 9.81508V6.81196C15.2454 6.17255 15.0567 5.6799 14.6794 5.33399C14.3125 4.9776 13.757 4.7994 13.0127 4.7994C12.5201 4.7994 12.0379 4.88326 11.5662 5.05097C11.0945 5.2082 10.6962 5.42309 10.3713 5.69562L9.74234 4.56356C10.1721 4.21765 10.6857 3.95559 11.2832 3.7774C11.8912 3.58872 12.5253 3.49438 13.1857 3.49438C14.3282 3.49438 15.2087 3.77216 15.8272 4.32771C16.4456 4.88326 16.7548 5.73231 16.7548 6.87485V11.9062H15.324ZM12.5882 12.0006C11.9698 12.0006 11.4247 11.8958 10.953 11.6861C10.4918 11.4765 10.1354 11.1882 9.88384 10.8214C9.63227 10.444 9.50649 10.0195 9.50649 9.54778C9.50649 9.09705 9.61131 8.68825 9.82095 8.32138C10.0411 7.95451 10.3922 7.66101 10.8744 7.44089C11.3671 7.22076 12.0274 7.1107 12.8555 7.1107H15.497V8.19559H12.9184C12.1637 8.19559 11.6553 8.32138 11.3933 8.57295C11.1312 8.82452 11.0002 9.1285 11.0002 9.48489C11.0002 9.89369 11.1627 10.2239 11.4876 10.4754C11.8125 10.7165 12.2633 10.8371 12.8398 10.8371C13.4058 10.8371 13.8985 10.7113 14.3178 10.4597C14.7475 10.2082 15.0567 9.84128 15.2454 9.35911L15.5442 10.3968C15.345 10.8895 14.9939 11.2826 14.4907 11.5761C13.9876 11.8591 13.3534 12.0006 12.5882 12.0006ZM23.1959 15.0509C22.4307 15.0509 21.6865 14.9408 20.9632 14.7207C20.2505 14.511 19.6687 14.2071 19.218 13.8087L19.9412 12.6452C20.3291 12.9807 20.806 13.2427 21.372 13.4314C21.9381 13.6306 22.5303 13.7301 23.1487 13.7301C24.1341 13.7301 24.8573 13.4995 25.3185 13.0383C25.7798 12.5771 26.0104 11.8748 26.0104 10.9314V9.17043L26.1676 7.5195L26.089 5.85285V3.573H27.5198V10.7742C27.5198 12.2417 27.1529 13.3213 26.4192 14.0131C25.6854 14.705 24.611 15.0509 23.1959 15.0509ZM23.0072 11.5603C22.2001 11.5603 21.4769 11.3926 20.8375 11.0572C20.2085 10.7113 19.7054 10.2344 19.328 9.6264C18.9612 9.01844 18.7777 8.31614 18.7777 7.5195C18.7777 6.71238 18.9612 6.01008 19.328 5.4126C19.7054 4.80464 20.2085 4.33295 20.8375 3.99752C21.4769 3.6621 22.2001 3.49438 23.0072 3.49438C23.72 3.49438 24.3699 3.64113 24.9569 3.93463C25.5439 4.21765 26.0104 4.65789 26.3563 5.25537C26.7127 5.85285 26.8909 6.60756 26.8909 7.5195C26.8909 8.42096 26.7127 9.17043 26.3563 9.76791C26.0104 10.3654 25.5439 10.8161 24.9569 11.1201C24.3699 11.4136 23.72 11.5603 23.0072 11.5603ZM23.1802 10.2396C23.7357 10.2396 24.2284 10.1243 24.6582 9.89369C25.0879 9.66309 25.4234 9.34338 25.6644 8.93458C25.916 8.52578 26.0418 8.05409 26.0418 7.5195C26.0418 6.98491 25.916 6.51322 25.6644 6.10442C25.4234 5.69562 25.0879 5.38116 24.6582 5.16103C24.2284 4.93043 23.7357 4.81512 23.1802 4.81512C22.6246 4.81512 22.1267 4.93043 21.6865 5.16103C21.2567 5.38116 20.9161 5.69562 20.6645 6.10442C20.4234 6.51322 20.3029 6.98491 20.3029 7.5195C20.3029 8.05409 20.4234 8.52578 20.6645 8.93458C20.9161 9.34338 21.2567 9.66309 21.6865 9.89369C22.1267 10.1243 22.6246 10.2396 23.1802 10.2396ZM37.5037 11.9062V7.69246L37.8653 8.66729L33.1327 0.900069H34.8151L38.793 7.45661H37.8811L41.8747 0.900069H43.4313L38.7144 8.66729L39.0603 7.69246V11.9062H37.5037ZM47.439 12.0006C46.6004 12.0006 45.8562 11.8172 45.2063 11.4503C44.5564 11.0834 44.0428 10.5803 43.6654 9.94086C43.2881 9.29097 43.0994 8.55723 43.0994 7.73962C43.0994 6.91154 43.2881 6.17779 43.6654 5.53839C44.0428 4.89898 44.5564 4.40108 45.2063 4.04469C45.8562 3.67782 46.6004 3.49438 47.439 3.49438C48.2671 3.49438 49.0061 3.67782 49.656 4.04469C50.3163 4.40108 50.8299 4.89898 51.1968 5.53839C51.5742 6.16731 51.7629 6.90106 51.7629 7.73962C51.7629 8.56771 51.5742 9.30145 51.1968 9.94086C50.8299 10.5803 50.3163 11.0834 49.656 11.4503C49.0061 11.8172 48.2671 12.0006 47.439 12.0006ZM47.439 10.6798C47.9736 10.6798 48.4505 10.5593 48.8698 10.3182C49.2996 10.0771 49.635 9.73646 49.8761 9.29621C50.1172 8.84548 50.2377 8.32662 50.2377 7.73962C50.2377 7.14215 50.1172 6.62852 49.8761 6.19876C49.635 5.75851 49.2996 5.41784 48.8698 5.17676C48.4505 4.93567 47.9736 4.81512 47.439 4.81512C46.9044 4.81512 46.4275 4.93567 46.0082 5.17676C45.5889 5.41784 45.2535 5.75851 45.0019 6.19876C44.7503 6.62852 44.6246 7.14215 44.6246 7.73962C44.6246 8.32662 44.7503 8.84548 45.0019 9.29621C45.2535 9.73646 45.5889 10.0771 46.0082 10.3182C46.4275 10.5593 46.9044 10.6798 47.439 10.6798ZM57.3566 12.0006C56.6438 12.0006 56.0149 11.8696 55.4698 11.6075C54.9352 11.3455 54.516 10.9471 54.212 10.4126C53.9185 9.86749 53.7717 9.18615 53.7717 8.36855V3.573H55.2811V8.19559C55.2811 9.0132 55.4751 9.6264 55.8629 10.0352C56.2612 10.444 56.8168 10.6484 57.5295 10.6484C58.0537 10.6484 58.5096 10.5436 58.8975 10.3339C59.2853 10.1138 59.584 9.79935 59.7937 9.39055C60.0033 8.97127 60.1081 8.46813 60.1081 7.88113V3.573H61.6176V11.9062H60.1868V9.65784L60.4226 10.2553C60.1501 10.8109 59.7413 11.2406 59.1962 11.5446C58.6511 11.8486 58.0379 12.0006 57.3566 12.0006ZM64.4911 11.9062V3.573H65.9376V5.83713L65.7961 5.2711C66.0267 4.69458 66.4145 4.25433 66.9596 3.95035C67.5047 3.64637 68.1755 3.49438 68.9722 3.49438V4.95663C68.9093 4.94615 68.8464 4.94091 68.7835 4.94091C68.7311 4.94091 68.6787 4.94091 68.6263 4.94091C67.8191 4.94091 67.1797 5.182 66.708 5.66417C66.2363 6.14635 66.0005 6.84341 66.0005 7.75535V11.9062H64.4911ZM80.3512 12.032C79.5126 12.032 78.7317 11.8905 78.0084 11.6075C77.2956 11.3245 76.6772 10.9314 76.1531 10.4283C75.629 9.91466 75.2202 9.31718 74.9267 8.63584C74.6332 7.95451 74.4864 7.21028 74.4864 6.40316C74.4864 5.59604 74.6332 4.85181 74.9267 4.17048C75.2202 3.48914 75.629 2.8969 76.1531 2.39377C76.6772 1.88014 77.2956 1.48182 78.0084 1.19881C78.7212 0.915792 79.5021 0.774285 80.3512 0.774285C81.1897 0.774285 81.9602 0.915792 82.6625 1.19881C83.3752 1.47134 83.9937 1.86442 84.5178 2.37804C85.0524 2.88118 85.4612 3.47342 85.7442 4.15475C86.0377 4.83609 86.1844 5.58556 86.1844 6.40316C86.1844 7.22076 86.0377 7.97023 85.7442 8.65156C85.4612 9.3329 85.0524 9.93038 84.5178 10.444C83.9937 10.9471 83.3752 11.3402 82.6625 11.6232C81.9602 11.8958 81.1897 12.032 80.3512 12.032ZM80.3512 10.6327C80.9591 10.6327 81.5199 10.5279 82.0335 10.3182C82.5576 10.1086 83.0084 9.81508 83.3857 9.43772C83.7736 9.04988 84.0723 8.59915 84.2819 8.08553C84.5021 7.57191 84.6121 7.01112 84.6121 6.40316C84.6121 5.7952 84.5021 5.23441 84.2819 4.72079C84.0723 4.20716 83.7736 3.76168 83.3857 3.38432C83.0084 2.99648 82.5576 2.69774 82.0335 2.4881C81.5199 2.27846 80.9591 2.17364 80.3512 2.17364C79.7327 2.17364 79.1614 2.27846 78.6373 2.4881C78.1237 2.69774 77.673 2.99648 77.2852 3.38432C76.8973 3.76168 76.5933 4.20716 76.3732 4.72079C76.1636 5.23441 76.0587 5.7952 76.0587 6.40316C76.0587 7.01112 76.1636 7.57191 76.3732 8.08553C76.5933 8.59915 76.8973 9.04988 77.2852 9.43772C77.673 9.81508 78.1237 10.1086 78.6373 10.3182C79.1614 10.5279 79.7327 10.6327 80.3512 10.6327ZM90.1285 11.9062L87.031 3.573H88.4618L91.2134 11.1201H90.5373L93.3989 3.573H94.6725L97.4712 11.1201H96.8108L99.6252 3.573H100.977L97.8643 11.9062H96.4177L93.792 5.01953H94.2322L91.575 11.9062H90.1285ZM102.509 11.9062V3.573H103.956V5.8214L103.72 5.22393C103.992 4.67886 104.412 4.25433 104.978 3.95035C105.544 3.64637 106.204 3.49438 106.959 3.49438C107.64 3.49438 108.238 3.62541 108.751 3.88746C109.275 4.14951 109.684 4.54783 109.978 5.08242C110.271 5.617 110.418 6.2931 110.418 7.1107V11.9062H108.908V7.28365C108.908 6.47653 108.709 5.86857 108.311 5.45977C107.923 5.05097 107.373 4.84657 106.66 4.84657C106.125 4.84657 105.659 4.95139 105.261 5.16103C104.862 5.37068 104.553 5.6799 104.333 6.0887C104.123 6.4975 104.019 7.00588 104.019 7.61384V11.9062H102.509ZM120.83 11.9062L115.987 0.900069H117.685L122.135 11.0572H121.16L125.641 0.900069H127.214L122.387 11.9062H120.83ZM128.397 11.9062V3.573H129.906V11.9062H128.397ZM129.152 1.96924C128.858 1.96924 128.612 1.8749 128.413 1.68622C128.224 1.49755 128.13 1.26694 128.13 0.994408C128.13 0.711392 128.224 0.475545 128.413 0.286868C128.612 0.0981902 128.858 0.00385151 129.152 0.00385151C129.445 0.00385151 129.686 0.0981902 129.875 0.286868C130.074 0.465063 130.174 0.690427 130.174 0.962961C130.174 1.24598 130.079 1.48707 129.891 1.68622C129.702 1.8749 129.456 1.96924 129.152 1.96924ZM137.207 12.0006C136.494 12.0006 135.849 11.8434 135.273 11.5289C134.707 11.204 134.256 10.727 133.92 10.0981C133.595 9.46917 133.433 8.68301 133.433 7.73962C133.433 6.79624 133.601 6.01008 133.936 5.38116C134.282 4.75223 134.738 4.28054 135.304 3.96608C135.881 3.65161 136.515 3.49438 137.207 3.49438C138.024 3.49438 138.747 3.67258 139.376 4.02897C140.005 4.38536 140.503 4.88326 140.87 5.52267C141.237 6.15159 141.42 6.89058 141.42 7.73962C141.42 8.58867 141.237 9.3329 140.87 9.97231C140.503 10.6117 140.005 11.1096 139.376 11.466C138.747 11.8224 138.024 12.0006 137.207 12.0006ZM132.788 11.9062V0.239698H134.298V5.78996L134.141 7.7239L134.235 9.65784V11.9062H132.788ZM137.081 10.6798C137.615 10.6798 138.092 10.5593 138.512 10.3182C138.941 10.0771 139.277 9.73646 139.518 9.29621C139.769 8.84548 139.895 8.32662 139.895 7.73962C139.895 7.14215 139.769 6.62852 139.518 6.19876C139.277 5.75851 138.941 5.41784 138.512 5.17676C138.092 4.93567 137.615 4.81512 137.081 4.81512C136.557 4.81512 136.08 4.93567 135.65 5.17676C135.231 5.41784 134.895 5.75851 134.644 6.19876C134.403 6.62852 134.282 7.14215 134.282 7.73962C134.282 8.32662 134.403 8.84548 134.644 9.29621C134.895 9.73646 135.231 10.0771 135.65 10.3182C136.08 10.5593 136.557 10.6798 137.081 10.6798ZM147.217 12.0006C146.326 12.0006 145.539 11.8172 144.858 11.4503C144.187 11.0834 143.663 10.5803 143.286 9.94086C142.919 9.30145 142.735 8.56771 142.735 7.73962C142.735 6.91154 142.914 6.17779 143.27 5.53839C143.637 4.89898 144.135 4.40108 144.764 4.04469C145.403 3.67782 146.121 3.49438 146.918 3.49438C147.725 3.49438 148.438 3.67258 149.056 4.02897C149.675 4.38536 150.157 4.8885 150.503 5.53839C150.859 6.17779 151.037 6.92726 151.037 7.78679C151.037 7.84969 151.032 7.92306 151.022 8.00692C151.022 8.09077 151.016 8.16939 151.006 8.24276H143.915V7.15787H150.22L149.606 7.53522C149.617 7.00064 149.507 6.5237 149.276 6.10442C149.046 5.68514 148.726 5.36019 148.317 5.12959C147.919 4.8885 147.452 4.76796 146.918 4.76796C146.394 4.76796 145.927 4.8885 145.518 5.12959C145.11 5.36019 144.79 5.69038 144.559 6.12014C144.329 6.53943 144.213 7.0216 144.213 7.56667V7.81824C144.213 8.37379 144.339 8.87169 144.591 9.31194C144.853 9.7417 145.214 10.0771 145.676 10.3182C146.137 10.5593 146.666 10.6798 147.264 10.6798C147.756 10.6798 148.202 10.596 148.6 10.4283C149.009 10.2606 149.365 10.009 149.669 9.67357L150.503 10.6484C150.125 11.0886 149.654 11.4241 149.088 11.6547C148.532 11.8853 147.908 12.0006 147.217 12.0006ZM152.536 14.2333L153.322 11.0572L153.526 11.9691C153.222 11.9691 152.965 11.8748 152.756 11.6861C152.557 11.4974 152.457 11.2406 152.457 10.9157C152.457 10.6012 152.557 10.3444 152.756 10.1453C152.965 9.9461 153.217 9.84652 153.511 9.84652C153.815 9.84652 154.061 9.95134 154.25 10.161C154.438 10.3601 154.533 10.6117 154.533 10.9157C154.533 11.0205 154.522 11.1253 154.501 11.2302C154.491 11.3245 154.464 11.4398 154.423 11.5761C154.391 11.7018 154.339 11.8591 154.265 12.0478L153.526 14.2333H152.536ZM161.138 11.9062V0.900069H165.776C166.95 0.900069 167.983 1.13067 168.874 1.59189C169.775 2.0531 170.472 2.69774 170.965 3.52583C171.468 4.35391 171.72 5.31302 171.72 6.40316C171.72 7.4933 171.468 8.45241 170.965 9.28049C170.472 10.1086 169.775 10.7532 168.874 11.2144C167.983 11.6756 166.95 11.9062 165.776 11.9062H161.138ZM162.71 10.5383H165.682C166.594 10.5383 167.38 10.3654 168.041 10.0195C168.711 9.67357 169.23 9.19139 169.597 8.57295C169.964 7.94402 170.147 7.22076 170.147 6.40316C170.147 5.57508 169.964 4.85181 169.597 4.23337C169.23 3.61493 168.711 3.13275 168.041 2.78684C167.38 2.44093 166.594 2.26798 165.682 2.26798H162.71V10.5383ZM173.908 11.9062V3.573H175.355V5.83713L175.213 5.2711C175.444 4.69458 175.831 4.25433 176.377 3.95035C176.922 3.64637 177.592 3.49438 178.389 3.49438V4.95663C178.326 4.94615 178.263 4.94091 178.2 4.94091C178.148 4.94091 178.096 4.94091 178.043 4.94091C177.236 4.94091 176.597 5.182 176.125 5.66417C175.653 6.14635 175.417 6.84341 175.417 7.75535V11.9062H173.908ZM183.742 12.0006C182.903 12.0006 182.159 11.8172 181.509 11.4503C180.859 11.0834 180.346 10.5803 179.968 9.94086C179.591 9.29097 179.402 8.55723 179.402 7.73962C179.402 6.91154 179.591 6.17779 179.968 5.53839C180.346 4.89898 180.859 4.40108 181.509 4.04469C182.159 3.67782 182.903 3.49438 183.742 3.49438C184.57 3.49438 185.309 3.67782 185.959 4.04469C186.619 4.40108 187.133 4.89898 187.5 5.53839C187.877 6.16731 188.066 6.90106 188.066 7.73962C188.066 8.56771 187.877 9.30145 187.5 9.94086C187.133 10.5803 186.619 11.0834 185.959 11.4503C185.309 11.8172 184.57 12.0006 183.742 12.0006ZM183.742 10.6798C184.276 10.6798 184.753 10.5593 185.173 10.3182C185.602 10.0771 185.938 9.73646 186.179 9.29621C186.42 8.84548 186.541 8.32662 186.541 7.73962C186.541 7.14215 186.42 6.62852 186.179 6.19876C185.938 5.75851 185.602 5.41784 185.173 5.17676C184.753 4.93567 184.276 4.81512 183.742 4.81512C183.207 4.81512 182.73 4.93567 182.311 5.17676C181.892 5.41784 181.556 5.75851 181.305 6.19876C181.053 6.62852 180.927 7.14215 180.927 7.73962C180.927 8.32662 181.053 8.84548 181.305 9.29621C181.556 9.73646 181.892 10.0771 182.311 10.3182C182.73 10.5593 183.207 10.6798 183.742 10.6798ZM194.571 12.0006C193.88 12.0006 193.245 11.8434 192.669 11.5289C192.103 11.204 191.647 10.727 191.301 10.0981C190.966 9.46917 190.798 8.68301 190.798 7.73962C190.798 6.79624 190.96 6.01008 191.285 5.38116C191.621 4.75223 192.071 4.28054 192.637 3.96608C193.214 3.65161 193.859 3.49438 194.571 3.49438C195.389 3.49438 196.112 3.67258 196.741 4.02897C197.37 4.38536 197.868 4.88326 198.235 5.52267C198.602 6.15159 198.785 6.89058 198.785 7.73962C198.785 8.58867 198.602 9.3329 198.235 9.97231C197.868 10.6117 197.37 11.1096 196.741 11.466C196.112 11.8224 195.389 12.0006 194.571 12.0006ZM190.153 14.9565V3.573H191.6V5.8214L191.505 7.75535L191.663 9.68929V14.9565H190.153ZM194.446 10.6798C194.98 10.6798 195.457 10.5593 195.876 10.3182C196.306 10.0771 196.642 9.73646 196.883 9.29621C197.134 8.84548 197.26 8.32662 197.26 7.73962C197.26 7.14215 197.134 6.62852 196.883 6.19876C196.642 5.75851 196.306 5.41784 195.876 5.17676C195.457 4.93567 194.98 4.81512 194.446 4.81512C193.921 4.81512 193.445 4.93567 193.015 5.17676C192.595 5.41784 192.26 5.75851 192.008 6.19876C191.767 6.62852 191.647 7.14215 191.647 7.73962C191.647 8.32662 191.767 8.84548 192.008 9.29621C192.26 9.73646 192.595 10.0771 193.015 10.3182C193.445 10.5593 193.921 10.6798 194.446 10.6798ZM207.499 11.9062V2.26798H203.725V0.900069H212.829V2.26798H209.055V11.9062H207.499ZM214.321 11.9062V0.239698H215.831V5.8214L215.532 5.22393C215.805 4.67886 216.224 4.25433 216.79 3.95035C217.356 3.64637 218.016 3.49438 218.771 3.49438C219.452 3.49438 220.05 3.62541 220.563 3.88746C221.087 4.14951 221.496 4.54783 221.79 5.08242C222.083 5.617 222.23 6.2931 222.23 7.1107V11.9062H220.721V7.28365C220.721 6.47653 220.521 5.86857 220.123 5.45977C219.735 5.05097 219.185 4.84657 218.472 4.84657C217.938 4.84657 217.471 4.95139 217.073 5.16103C216.675 5.37068 216.365 5.6799 216.145 6.0887C215.936 6.4975 215.831 7.00588 215.831 7.61384V11.9062H214.321ZM228.734 12.0006C227.843 12.0006 227.057 11.8172 226.376 11.4503C225.705 11.0834 225.181 10.5803 224.803 9.94086C224.436 9.30145 224.253 8.56771 224.253 7.73962C224.253 6.91154 224.431 6.17779 224.788 5.53839C225.154 4.89898 225.652 4.40108 226.281 4.04469C226.921 3.67782 227.639 3.49438 228.435 3.49438C229.243 3.49438 229.955 3.67258 230.574 4.02897C231.192 4.38536 231.674 4.8885 232.02 5.53839C232.377 6.17779 232.555 6.92726 232.555 7.78679C232.555 7.84969 232.55 7.92306 232.539 8.00692C232.539 8.09077 232.534 8.16939 232.523 8.24276H225.432V7.15787H231.737L231.124 7.53522C231.135 7.00064 231.024 6.5237 230.794 6.10442C230.563 5.68514 230.244 5.36019 229.835 5.12959C229.436 4.8885 228.97 4.76796 228.435 4.76796C227.911 4.76796 227.445 4.8885 227.036 5.12959C226.627 5.36019 226.308 5.69038 226.077 6.12014C225.846 6.53943 225.731 7.0216 225.731 7.56667V7.81824C225.731 8.37379 225.857 8.87169 226.108 9.31194C226.37 9.7417 226.732 10.0771 227.193 10.3182C227.654 10.5593 228.184 10.6798 228.781 10.6798C229.274 10.6798 229.719 10.596 230.118 10.4283C230.527 10.2606 230.883 10.009 231.187 9.67357L232.02 10.6484C231.643 11.0886 231.171 11.4241 230.605 11.6547C230.05 11.8853 229.426 12.0006 228.734 12.0006ZM242.27 11.9062L237.427 0.900069H239.125L243.575 11.0572H242.6L247.081 0.900069H248.653L243.826 11.9062H242.27ZM249.837 11.9062V3.573H251.346V11.9062H249.837ZM250.591 1.96924C250.298 1.96924 250.051 1.8749 249.852 1.68622C249.664 1.49755 249.569 1.26694 249.569 0.994408C249.569 0.711392 249.664 0.475545 249.852 0.286868C250.051 0.0981902 250.298 0.00385151 250.591 0.00385151C250.885 0.00385151 251.126 0.0981902 251.314 0.286868C251.514 0.465063 251.613 0.690427 251.613 0.962961C251.613 1.24598 251.519 1.48707 251.33 1.68622C251.142 1.8749 250.895 1.96924 250.591 1.96924ZM258.646 12.0006C257.933 12.0006 257.289 11.8434 256.712 11.5289C256.146 11.204 255.695 10.727 255.36 10.0981C255.035 9.46917 254.873 8.68301 254.873 7.73962C254.873 6.79624 255.04 6.01008 255.376 5.38116C255.722 4.75223 256.178 4.28054 256.744 3.96608C257.32 3.65161 257.954 3.49438 258.646 3.49438C259.464 3.49438 260.187 3.67258 260.816 4.02897C261.445 4.38536 261.943 4.88326 262.31 5.52267C262.676 6.15159 262.86 6.89058 262.86 7.73962C262.86 8.58867 262.676 9.3329 262.31 9.97231C261.943 10.6117 261.445 11.1096 260.816 11.466C260.187 11.8224 259.464 12.0006 258.646 12.0006ZM254.228 11.9062V0.239698H255.737V5.78996L255.58 7.7239L255.674 9.65784V11.9062H254.228ZM258.52 10.6798C259.055 10.6798 259.532 10.5593 259.951 10.3182C260.381 10.0771 260.716 9.73646 260.957 9.29621C261.209 8.84548 261.335 8.32662 261.335 7.73962C261.335 7.14215 261.209 6.62852 260.957 6.19876C260.716 5.75851 260.381 5.41784 259.951 5.17676C259.532 4.93567 259.055 4.81512 258.52 4.81512C257.996 4.81512 257.519 4.93567 257.09 5.17676C256.67 5.41784 256.335 5.75851 256.083 6.19876C255.842 6.62852 255.722 7.14215 255.722 7.73962C255.722 8.32662 255.842 8.84548 256.083 9.29621C256.335 9.73646 256.67 10.0771 257.09 10.3182C257.519 10.5593 257.996 10.6798 258.52 10.6798ZM268.656 12.0006C267.765 12.0006 266.979 11.8172 266.298 11.4503C265.627 11.0834 265.103 10.5803 264.725 9.94086C264.358 9.30145 264.175 8.56771 264.175 7.73962C264.175 6.91154 264.353 6.17779 264.71 5.53839C265.076 4.89898 265.574 4.40108 266.203 4.04469C266.843 3.67782 267.561 3.49438 268.357 3.49438C269.164 3.49438 269.877 3.67258 270.496 4.02897C271.114 4.38536 271.596 4.8885 271.942 5.53839C272.299 6.17779 272.477 6.92726 272.477 7.78679C272.477 7.84969 272.472 7.92306 272.461 8.00692C272.461 8.09077 272.456 8.16939 272.445 8.24276H265.354V7.15787H271.659L271.046 7.53522C271.057 7.00064 270.946 6.5237 270.716 6.10442C270.485 5.68514 270.166 5.36019 269.757 5.12959C269.358 4.8885 268.892 4.76796 268.357 4.76796C267.833 4.76796 267.367 4.8885 266.958 5.12959C266.549 5.36019 266.23 5.69038 265.999 6.12014C265.768 6.53943 265.653 7.0216 265.653 7.56667V7.81824C265.653 8.37379 265.779 8.87169 266.03 9.31194C266.292 9.7417 266.654 10.0771 267.115 10.3182C267.576 10.5593 268.106 10.6798 268.703 10.6798C269.196 10.6798 269.641 10.596 270.04 10.4283C270.449 10.2606 270.805 10.009 271.109 9.67357L271.942 10.6484C271.565 11.0886 271.093 11.4241 270.527 11.6547C269.972 11.8853 269.348 12.0006 268.656 12.0006ZM274.651 8.43144L274.368 0.900069H276.145L275.846 8.43144H274.651ZM275.265 12.0006C274.971 12.0006 274.725 11.901 274.526 11.7018C274.326 11.5027 274.227 11.2668 274.227 10.9943C274.227 10.7008 274.326 10.4597 274.526 10.271C274.725 10.0824 274.971 9.98803 275.265 9.98803C275.558 9.98803 275.799 10.0824 275.988 10.271C276.177 10.4597 276.271 10.7008 276.271 10.9943C276.271 11.2668 276.177 11.5027 275.988 11.7018C275.799 11.901 275.558 12.0006 275.265 12.0006Z" fill="#E2E2E2"/>
</svg>
